<?xml version="1.0" encoding="utf-8"?>
<!-- Generator: Adobe Illustrator 23.0.6, SVG Export Plug-In . SVG Version: 6.00 Build 0)  -->
<svg version="1.1" id="Layer_1" xmlns="http://www.w3.org/2000/svg" xmlns:xlink="http://www.w3.org/1999/xlink" x="0px" y="0px"
	 viewBox="0 0 157.05 99.376" style="enable-background:new 0 0 157.05 99.376;" xml:space="preserve">
<style type="text/css">
	.st0{fill:#FFDFB0;}
	.st1{fill:#EFEFEF;stroke:#000000;stroke-width:4;stroke-linecap:round;stroke-linejoin:round;stroke-miterlimit:10;}
	.st2{fill:none;stroke:#000000;stroke-width:4;stroke-linecap:round;stroke-linejoin:round;stroke-miterlimit:10;}
</style>
<path class="st0" d="M64.222,14.396c0,0-2.181-4.534-2.783-5.566c-1.771-3.036-4.301-4.301-4.301-4.301s-5.06,9.614-5.819,15.938
	c-0.759,6.325,1.012,15.179,1.012,15.179s-10.119,9.361-15.938,17.456s-8.096,16.191-8.349,20.998
	c-0.253,4.807,1.518,11.89,1.518,11.89s-9.108,2.024-12.902-1.012s-4.048-7.337-3.542-10.119c0.506-2.783,4.048-5.819,1.012-8.096
	S3.505,66.006,1.987,75.619s2.277,14.42,6.072,17.203c3.795,2.783,6.072,3.289,9.108,3.542c3.036,0.253,16.191,0.506,19.986,0.506
	s21.504-1.265,21.504-1.265s-0.253,1.771,5.566,1.771s6.578-0.506,6.325-2.53c-0.253-2.024,3.289-7.084,4.301-9.867
	s2.783-11.131,2.783-11.131s2.783,2.783,8.602,2.277s11.89,3.795,14.167,5.566s4.048,1.771,4.301-1.012
	c0.253-2.783-2.024-6.578-5.819-8.349c-3.795-1.771-8.602-1.265-12.396-3.795c-3.795-2.53-5.819-10.119-5.819-13.408
	s-3.036-16.95-3.036-16.95s4.048-3.289,5.819-6.072c1.771-2.783,2.783-9.361,2.783-9.361s-5.06-1.518-6.831-5.313
	s-4.554-4.807-4.554-4.807s0.253-2.53-2.024-6.072c-2.277-3.542-4.554-4.301-4.554-4.301s-1.771,2.783-2.53,5.06
	C64.981,9.59,64.222,14.396,64.222,14.396z"/>
<path class="st1" d="M97.794,90.099h44.09v1.861c0,2.75-2.25,5-5,5h-34.09c-2.75,0-5-2.25-5-5V90.099z"/>
<line class="st1" x1="141.884" y1="90.099" x2="155.05" y2="55.501"/>
<path class="st2" d="M64.222,14.649c0,0-1.012-2.277-2.783-4.807s-3.795-4.554-3.795-4.554s-5.819,6.831-6.325,13.914
	s1.012,15.938,1.012,15.938s-6.831,4.807-14.42,15.938s-9.361,19.733-9.361,24.287c0,4.553,1.265,10.37,1.265,10.372
	c0.014,0.065-6.315,0.858-6.803,0.869c-3.182,0.072-6.22-1.008-8.262-3.561c-2.675-3.343-2.338-7.247-0.855-10.955
	c1.265-3.162,2.048-5.52-2.295-6.087C2.283,64.79,0.843,78.322,2.709,84.401c1.396,4.55,4.921,9.88,9.651,11.457
	c6.072,2.024,15.685,1.265,24.54,1.265s18.721-1.012,18.721-1.012"/>
<path class="st2" d="M51.32,62.97c0,0,1.012,9.614,2.783,17.203c1.771,7.59,4.048,14.926,5.566,15.938
	c1.518,1.012,2.277,1.265,5.313,1.265c3.036,0,6.072-0.506,5.566-3.036c-0.506-2.53-2.783-2.53-2.783-4.048
	c0-5.358-0.754-10.62-1.265-15.938"/>
<path class="st2" d="M65.74,7.819c0.569-2.197,1.638-4.05,3.036-5.819c0,0,2.024,1.771,3.289,3.289s2.277,3.795,2.277,3.795"/>
<path class="st2" d="M71.559,12.878c0,0,3.795-0.253,7.337,4.301s7.337,5.566,7.337,5.566s0.253,5.566-4.048,10.625
	c-4.301,5.06-5.06,5.06-5.06,5.06s4.048,3.542,2.53,21.757c-1.518,18.215-6.325,27.07-6.325,27.07"/>
<path class="st2" d="M80.16,50.321c0,0,1.737,12.356,3.162,14.8c2.822,4.838,8.787,4.702,13.52,6.322
	c2.481,0.85,4.977,2.278,6.405,4.55c1.084,1.725,2.592,5.172,0.441,6.71c-1.307,0.934-2.639-0.534-3.654-1.243
	c-1.38-0.965-2.843-1.812-4.364-2.535c-3.043-1.445-6.325-2.388-9.673-2.758c-2.61-0.288-5.141-0.174-7.103-2.066"/>
<path class="st2" d="M70.42,23.124c0,0,0.506-0.759,1.518-1.265c1.012-0.506,2.783-0.253,2.783-0.253"/>
</svg>
